{
    "accessors" : [
        {
            "bufferView" : 0,
            "componentType" : 5121,
            "count" : 288,
            "max" : [
                189
            ],
            "min" : [
                0
            ],
            "type" : "SCALAR"
        },
        {
            "bufferView" : 1,
            "componentType" : 5126,
            "count" : 190,
            "max" : [
                1.5000014305114746,
                0.3000006079673767,
                1.5000007152557373
            ],
            "min" : [
                -1.500000238418579,
                -0.29999983310699463,
                -1.5000009536743164
            ],
            "type" : "VEC3"
        },
        {
            "bufferView" : 2,
            "componentType" : 5126,
            "count" : 190,
            "max" : [
                1.0,
                1.0,
                1.0
            ],
            "min" : [
                -1.0,
                -1.0,
                -1.0
            ],
            "type" : "VEC3"
        },
        {
            "bufferView" : 3,
            "componentType" : 5123,
            "count" : 190,
            "max" : [
                3,
                0,
                0,
                0
            ],
            "min" : [
                0,
                0,
                0,
                0
            ],
            "type" : "VEC4"
        },
        {
            "bufferView" : 4,
            "componentType" : 5126,
            "count" : 190,
            "max" : [
                1.0,
                0.0,
                0.0,
                0.0
            ],
            "min" : [
                1.0,
                0.0,
                0.0,
                0.0
            ],
            "type" : "VEC4"
        },
        {
            "bufferView" : 5,
            "componentType" : 5126,
            "count" : 4,
            "max" : [
                1.0,
                1.0,
                0.0,
                0.0,
                1.0,
                4.371138828673793e-08,
                1.0,
                0.0,
                4.470348358154297e-08,
                1.0,
                9.920952948050399e-10,
                0.0,
                1.0008245706558228,
                1.0008245706558228,
                1.000068187713623,
                1.0
            ],
            "min" : [
                0.0,
                -1.0,
                0.0,
                0.0,
                -1.0,
                -4.371138828673793e-08,
                -1.0,
                0.0,
                -4.470348358154297e-08,
                -1.0,
                -1.0,
                0.0,
                -0.9991754293441772,
                0.9991754293441772,
                -0.999931812286377,
                1.0
            ],
            "type" : "MAT4"
        }
    ],
    "asset" : {
        "generator" : "Khronos Blender glTF 2.0 exporter",
        "version" : "2.0"
    },
    "bufferViews" : [
        {
            "buffer" : 0,
            "byteLength" : 288,
            "byteOffset" : 0,
            "target" : 34963
        },
        {
            "buffer" : 0,
            "byteLength" : 2280,
            "byteOffset" : 288,
            "target" : 34962
        },
        {
            "buffer" : 0,
            "byteLength" : 2280,
            "byteOffset" : 2568,
            "target" : 34962
        },
        {
            "buffer" : 0,
            "byteLength" : 1520,
            "byteOffset" : 4848,
            "target" : 34962
        },
        {
            "buffer" : 0,
            "byteLength" : 3040,
            "byteOffset" : 6368,
            "target" : 34962
        },
        {
            "buffer" : 0,
            "byteLength" : 256,
            "byteOffset" : 9408
        }
    ],
    "buffers" : [
        {
            "byteLength" : 9664,
            "uri" : "frame1.bin"
        }
    ],
    "materials" : [
        {
            "name" : "Material",
            "pbrMetallicRoughness" : {
                "baseColorFactor" : [
                    0.6400000190734865,
                    0.6400000190734865,
                    0.6400000190734865,
                    1.0
                ],
                "metallicFactor" : 0.0
            }
        }
    ],
    "meshes" : [
        {
            "name" : "Cube",
            "primitives" : [
                {
                    "attributes" : {
                        "JOINTS_0" : 3,
                        "NORMAL" : 2,
                        "POSITION" : 1,
                        "WEIGHTS_0" : 4
                    },
                    "indices" : 0,
                    "material" : 0
                }
            ]
        }
    ],
    "nodes" : [
        {
            "children" : [
                2,
                4,
                5,
                6,
                7
            ],
            "name" : "Armature",
            "rotation" : [
                -0.7071068286895752,
                0.0,
                -0.0,
                0.7071068286895752
            ],
            "translation" : [
                1.9991754293441772,
                0.37201201915740967,
                2.000068187713623
            ]
        },
        {
            "name" : "Camera",
            "rotation" : [
                0.483536034822464,
                0.33687159419059753,
                -0.20870360732078552,
                0.7804827094078064
            ],
            "translation" : [
                7.481131553649902,
                5.34366512298584,
                6.5076398849487305
            ]
        },
        {
            "mesh" : 0,
            "name" : "Grail",
            "rotation" : [
                0.7071068286895752,
                -1.246145230961586e-24,
                -2.5121481026586963e-15,
                0.7071068286895752
            ],
            "skin" : 0,
            "translation" : [
                -1.9991754293441772,
                2.000068187713623,
                -0.0989139974117279
            ]
        },
        {
            "name" : "Lamp",
            "rotation" : [
                0.16907575726509094,
                0.7558802962303162,
                -0.27217137813568115,
                0.570947527885437
            ],
            "scale" : [
                1.0,
                1.0,
                0.9999999403953552
            ],
            "translation" : [
                4.076245307922363,
                5.903861999511719,
                -1.0054539442062378
            ]
        },
        {
            "name" : "Armature_c1",
            "rotation" : [
                5.463922647663821e-09,
                0.0,
                0.0,
                1.0
            ],
            "translation" : [
                -1.0,
                1.0,
                4.371138828673793e-08
            ]
        },
        {
            "name" : "Armature_c2",
            "rotation" : [
                -0.5,
                0.5,
                0.5,
                0.5
            ],
            "translation" : [
                -1.0,
                3.0,
                8.74227694680485e-08
            ]
        },
        {
            "name" : "Armature_c3",
            "rotation" : [
                1.0,
                0.0,
                0.0,
                -1.0927847071684482e-08
            ],
            "translation" : [
                -3.0,
                3.0,
                8.74227694680485e-08
            ]
        },
        {
            "name" : "Armature_c4",
            "rotation" : [
                -0.5,
                -0.5,
                -0.5,
                0.5
            ],
            "translation" : [
                -3.0,
                1.0,
                -7.105427357601002e-15
            ]
        }
    ],
    "scene" : 0,
    "scenes" : [
        {
            "name" : "Scene",
            "nodes" : [
                0,
                3,
                1
            ]
        }
    ],
    "skins" : [
        {
            "inverseBindMatrices" : 5,
            "joints" : [
                4,
                5,
                6,
                7
            ],
            "skeleton" : 0
        }
    ]
}
